<?xml version="1.0" encoding="utf-8"?>
<!-- Generator: Adobe Illustrator 18.1.1, SVG Export Plug-In . SVG Version: 6.00 Build 0)  -->
<svg version="1.1" id="Layer_1" xmlns="http://www.w3.org/2000/svg" xmlns:xlink="http://www.w3.org/1999/xlink" x="0px" y="0px"
	 viewBox="-124.5 293.3 15 30" enable-background="new -124.5 293.3 15 30" xml:space="preserve">
<g id="_x31_90">
</g>
<g>
	<path fill="#32BAAE" d="M41.8,204.5c-0.1,0-0.1,0-0.2,0c-1.5-0.1-2.6-2-3.7-4c-0.9-1.5-1.8-3.2-2.8-3.4c-1-0.2-2.5,1-3.9,2.2
		c-1.5,1.2-3,2.4-4.3,2.4c-0.2,0-0.4,0-0.5-0.1c-1.5-0.4-2.2-2.4-2.9-4.6c-0.6-1.6-1.2-3.5-2.1-3.9c-0.9-0.3-2.6,0.6-4.2,1.4
		c-1.5,0.8-3,1.6-4.2,1.6c-0.4,0-0.7-0.1-1-0.2c-1.4-0.7-1.7-2.8-2-5c-0.3-1.7-0.5-3.7-1.4-4.2c-0.7-0.5-2.6,0.1-4.4,0.6
		c-1.3,0.4-2.7,0.9-3.8,0.9c-0.6,0-1.1-0.1-1.5-0.4c-1.2-0.9-1.1-3-1-5.3c0.1-1.8,0.1-3.7-0.6-4.4c-0.3-0.3-0.9-0.4-1.7-0.4
		c-0.8,0-1.8,0.1-2.7,0.2c-1,0.1-1.9,0.3-2.8,0.3c-1.2,0-2-0.3-2.5-0.8c-1-1.1-0.6-3.2-0.1-5.4c0.4-1.7,0.8-3.7,0.2-4.4
		c-0.6-0.8-2.6-0.9-4.3-1c-2.2-0.1-4.4-0.2-5.2-1.5c-0.8-1.3,0-3.2,0.9-5.3c0.7-1.6,1.5-3.4,1-4.3c-0.4-0.9-2.3-1.3-4-1.8
		c-2.2-0.5-4.2-1-4.8-2.5c-0.5-1.4,0.6-3.2,1.9-5c1-1.5,2.1-3.1,1.8-4.1c-0.3-0.9-2.1-1.7-3.6-2.5c-2-0.9-4-1.8-4.3-3.3
		c-0.3-1.5,1.2-3,2.8-4.6c1.2-1.3,2.6-2.7,2.5-3.7c-0.1-1-1.7-2.1-3.1-3.1c-1.8-1.3-3.6-2.5-3.6-4.1c0-1.5,1.7-2.8,3.6-4.1
		c1.4-1,3-2.1,3.1-3.1c0.1-1-1.3-2.4-2.5-3.7c-1.6-1.6-3-3.1-2.8-4.6c0.3-1.5,2.2-2.4,4.3-3.3c1.6-0.7,3.4-1.5,3.6-2.5
		c0.3-1-0.8-2.6-1.8-4.1c-1.2-1.9-2.4-3.6-1.9-5c0.5-1.4,2.6-1.9,4.8-2.5c1.7-0.4,3.6-0.9,4-1.8c0.4-0.9-0.3-2.7-1-4.3
		c-0.9-2.1-1.7-4-0.9-5.3c0.8-1.3,2.9-1.4,5.2-1.5c1.7-0.1,3.7-0.2,4.3-1c0.6-0.8,0.2-2.7-0.2-4.4c-0.5-2.2-1-4.3,0.1-5.4
		c0.5-0.6,1.3-0.8,2.5-0.8c0.9,0,1.9,0.1,2.8,0.3c0.9,0.1,1.9,0.2,2.7,0.2c0.9,0,1.4-0.1,1.7-0.4c0.7-0.7,0.6-2.6,0.6-4.4
		c-0.1-2.2-0.2-4.4,1-5.3c0.4-0.3,0.9-0.4,1.5-0.4c1.1,0,2.5,0.4,3.8,0.9c1.8,0.6,3.6,1.1,4.4,0.6c0.8-0.5,1.1-2.5,1.4-4.2
		c0.3-2.2,0.6-4.3,2-5c0.3-0.1,0.6-0.2,1-0.2c1.2,0,2.7,0.8,4.2,1.6c1.6,0.9,3.3,1.8,4.2,1.4c0.9-0.4,1.5-2.2,2.1-3.9
		c0.7-2.1,1.4-4.1,2.9-4.6c0.2,0,0.4-0.1,0.5-0.1c1.3,0,2.7,1.2,4.3,2.4c1.4,1.2,2.9,2.4,3.9,2.2c0.9-0.2,1.9-1.9,2.8-3.4
		c1.1-2,2.2-3.8,3.7-4c1.5-0.1,2.8,1.5,4.3,3.2c1.1,1.3,2.4,2.9,3.4,2.9s2.3-1.5,3.4-2.9c1.4-1.7,2.8-3.3,4.3-3.2
		c1.5,0.1,2.6,2,3.7,4c0.9,1.5,1.8,3.2,2.8,3.4c1,0.2,2.5-1,3.9-2.2c1.5-1.2,3-2.4,4.3-2.4c0.2,0,0.4,0,0.5,0.1
		c1.5,0.4,2.2,2.4,2.9,4.6c0.6,1.6,1.2,3.5,2.1,3.9c0.9,0.3,2.6-0.6,4.2-1.4c1.5-0.8,3-1.6,4.2-1.6c0.4,0,0.7,0.1,1,0.2
		c1.4,0.7,1.7,2.8,2,5c0.3,1.7,0.5,3.7,1.4,4.2c0.7,0.5,2.6-0.1,4.4-0.6c1.3-0.4,2.7-0.9,3.8-0.9c0.6,0,1.1,0.1,1.5,0.4
		c1.2,0.9,1.1,3,1,5.3c-0.1,1.8-0.1,3.7,0.6,4.4c0.3,0.3,0.9,0.4,1.7,0.4c0.8,0,1.8-0.1,2.7-0.2c1-0.1,1.9-0.3,2.8-0.3
		c1.2,0,2,0.3,2.5,0.8c1,1.1,0.6,3.2,0.1,5.4c-0.4,1.7-0.8,3.7-0.2,4.4c0.6,0.8,2.6,0.9,4.3,1c2.2,0.1,4.4,0.2,5.2,1.5
		c0.8,1.3,0,3.2-0.9,5.3c-0.7,1.6-1.5,3.4-1,4.3c0.4,0.9,2.3,1.3,4,1.8c2.2,0.5,4.2,1,4.8,2.5c0.5,1.4-0.6,3.2-1.9,5
		c-1,1.5-2.1,3.1-1.8,4.1c0.3,0.9,2.1,1.7,3.6,2.5c2.1,0.9,4,1.8,4.3,3.3c0.3,1.5-1.2,3-2.8,4.6c-1.2,1.3-2.6,2.7-2.5,3.7
		c0.1,1,1.7,2.1,3.1,3.1c1.8,1.3,3.6,2.5,3.6,4.1c0,1.5-1.7,2.8-3.6,4.1c-1.4,1-3,2.1-3.1,3.1c-0.1,1,1.3,2.4,2.5,3.7
		c1.6,1.6,3,3.1,2.8,4.6c-0.3,1.5-2.2,2.4-4.3,3.3c-1.6,0.7-3.4,1.5-3.6,2.5c-0.3,1,0.8,2.6,1.8,4.1c1.2,1.9,2.4,3.6,1.9,5
		c-0.6,1.4-2.6,1.9-4.8,2.5c-1.7,0.4-3.6,0.9-4,1.8c-0.4,0.9,0.3,2.7,1,4.3c0.9,2.1,1.7,4,0.9,5.3c-0.8,1.3-2.9,1.4-5.2,1.5
		c-1.7,0.1-3.7,0.2-4.3,1c-0.6,0.8-0.2,2.7,0.2,4.4c0.5,2.2,1,4.3-0.1,5.4c-0.5,0.6-1.3,0.8-2.5,0.8c-0.9,0-1.9-0.1-2.8-0.3
		c-0.9-0.1-1.9-0.2-2.7-0.2c-0.9,0-1.4,0.1-1.7,0.4c-0.7,0.7-0.6,2.6-0.6,4.4c0.1,2.2,0.2,4.4-1,5.3c-0.4,0.3-0.9,0.4-1.5,0.4
		c-1.1,0-2.5-0.4-3.8-0.9c-1.8-0.6-3.6-1.1-4.4-0.6c-0.8,0.5-1.1,2.5-1.4,4.2c-0.3,2.2-0.6,4.3-2,5c-0.3,0.1-0.6,0.2-1,0.2
		c-1.2,0-2.7-0.8-4.2-1.6c-1.6-0.9-3.3-1.8-4.2-1.4c-0.9,0.4-1.5,2.2-2.1,3.9c-0.7,2.1-1.4,4.1-2.9,4.6c-0.2,0-0.4,0.1-0.5,0.1
		c-1.3,0-2.7-1.2-4.3-2.4c-1.4-1.2-2.9-2.4-3.9-2.2c-0.9,0.2-1.9,1.9-2.8,3.4c-1.1,2-2.2,3.8-3.7,4c-1.5,0.1-2.8-1.5-4.3-3.2
		c-1.1-1.4-2.4-2.9-3.4-2.9s-2.3,1.5-3.4,2.9C44.5,202.9,43.2,204.5,41.8,204.5L41.8,204.5z M49.3,197.4c1.5,0,2.8,1.6,4.2,3.2
		c1.1,1.3,2.4,2.8,3.3,2.8l0.1,0c1-0.1,2-1.9,2.9-3.5c1.1-1.9,2.1-3.6,3.5-3.9c1.4-0.3,3,1,4.7,2.4c1.4,1.2,3,2.4,3.9,2.2
		c1-0.3,1.6-2.2,2.2-3.9c0.7-2,1.4-4,2.7-4.5c0.2-0.1,0.5-0.1,0.8-0.1c1.2,0,2.7,0.8,4.2,1.6c1.6,0.9,3.4,1.8,4.2,1.4
		c0.9-0.4,1.2-2.5,1.5-4.3c0.3-2.1,0.6-4.1,1.8-4.9c0.4-0.2,0.8-0.3,1.4-0.3c1.1,0,2.5,0.4,3.8,0.9c1.8,0.6,3.7,1.1,4.4,0.6
		c0.8-0.6,0.7-2.6,0.7-4.5c-0.1-2.2-0.2-4.2,0.9-5.2c0.5-0.5,1.3-0.7,2.4-0.7c0.9,0,1.9,0.1,2.8,0.3c0.9,0.1,1.9,0.2,2.7,0.2
		c0.9,0,1.5-0.2,1.8-0.5c0.7-0.7,0.2-2.7-0.2-4.5c-0.5-2.1-0.9-4.1,0-5.3c0.9-1.1,2.9-1.3,5-1.4c1.8-0.1,3.8-0.2,4.4-1.1
		c0.5-0.8-0.3-2.7-1-4.4c-0.9-2-1.7-3.9-1-5.2c0.6-1.3,2.6-1.8,4.7-2.3c1.8-0.4,3.7-0.9,4.1-1.9c0.4-0.9-0.8-2.6-1.8-4.1
		c-1.2-1.8-2.3-3.5-1.9-4.9c0.4-1.4,2.2-2.2,4.2-3.1c1.6-0.8,3.5-1.6,3.7-2.6c0.2-1-1.2-2.4-2.5-3.7c-1.5-1.6-3-3-2.8-4.5
		c0.1-1.4,1.8-2.6,3.5-3.8c1.5-1,3.2-2.2,3.2-3.2s-1.7-2.2-3.2-3.2c-1.8-1.2-3.4-2.4-3.5-3.8c-0.1-1.5,1.3-2.9,2.8-4.5
		c1.3-1.3,2.7-2.7,2.5-3.7c-0.2-1-2.1-1.8-3.7-2.6c-2-0.9-3.8-1.7-4.2-3.1c-0.4-1.4,0.7-3.1,1.9-4.9c1-1.5,2.1-3.2,1.8-4.1
		c-0.4-0.9-2.3-1.4-4.1-1.9c-2.1-0.5-4.1-1-4.7-2.3c-0.6-1.3,0.2-3.2,1-5.2c0.7-1.7,1.5-3.5,1-4.4c-0.5-0.8-2.6-1-4.4-1.1
		c-2.1-0.1-4.2-0.2-5-1.4c-0.9-1.2-0.4-3.1,0-5.3c0.4-1.8,0.8-3.8,0.2-4.5c-0.3-0.3-0.9-0.5-1.8-0.5c-0.8,0-1.8,0.1-2.7,0.2
		c-1,0.1-1.9,0.3-2.8,0.3c-1.1,0-1.9-0.2-2.4-0.7c-1.1-1-1-3-0.9-5.2c0.1-1.8,0.1-3.9-0.6-4.5c-0.7-0.5-2.6,0-4.4,0.6
		c-1.3,0.4-2.7,0.9-3.8,0.9c-0.6,0-1-0.1-1.4-0.3c-1.2-0.8-1.5-2.8-1.8-4.9c-0.3-1.8-0.6-3.8-1.5-4.3c-0.8-0.4-2.6,0.5-4.2,1.4
		c-1.5,0.8-3,1.6-4.2,1.6c-0.3,0-0.6,0-0.8-0.1c-1.3-0.5-2-2.4-2.7-4.5c-0.6-1.7-1.3-3.7-2.2-3.9c-0.9-0.3-2.5,1-3.9,2.2
		c-1.7,1.4-3.3,2.7-4.7,2.4c-1.4-0.3-2.4-2-3.5-3.9c-0.9-1.6-1.9-3.4-2.9-3.5c0,0,0,0,0,0c-1,0-2.3,1.5-3.4,2.8
		c-1.4,1.7-2.7,3.2-4.2,3.2s-2.8-1.6-4.2-3.2c-1.1-1.3-2.4-2.8-3.3-2.8c-1.1,0.1-2.1,1.9-3,3.5c-1.1,1.9-2.1,3.6-3.5,3.9
		c-1.4,0.3-3-1-4.7-2.4c-1.4-1.2-3-2.4-3.9-2.2c-1,0.3-1.6,2.2-2.2,3.9c-0.7,2-1.4,4-2.7,4.5c-0.2,0.1-0.5,0.1-0.8,0.1
		c-1.2,0-2.7-0.8-4.2-1.6c-1.6-0.9-3.4-1.8-4.2-1.4c-0.9,0.4-1.2,2.5-1.5,4.3c-0.3,2.1-0.6,4.1-1.8,4.9c-0.4,0.2-0.8,0.3-1.4,0.3
		c-1.1,0-2.5-0.4-3.8-0.9c-1.8-0.6-3.7-1.1-4.4-0.6c-0.8,0.6-0.7,2.6-0.6,4.5c0.1,2.2,0.2,4.2-0.9,5.2c-0.5,0.5-1.3,0.7-2.4,0.7
		c-0.9,0-1.9-0.1-2.8-0.3c-0.9-0.1-1.9-0.2-2.7-0.2c-0.9,0-1.5,0.2-1.8,0.5c-0.7,0.7-0.2,2.7,0.2,4.5c0.5,2.1,0.9,4.1,0,5.3
		c-0.9,1.2-2.9,1.3-5,1.4c-1.8,0.1-3.8,0.2-4.4,1.1c-0.5,0.8,0.3,2.7,1,4.4c0.8,2,1.7,3.9,1,5.2c-0.6,1.3-2.6,1.8-4.7,2.3
		c-1.8,0.4-3.7,0.9-4.1,1.9c-0.4,0.9,0.8,2.6,1.8,4.1c1.2,1.8,2.3,3.5,1.9,4.9c-0.4,1.4-2.2,2.2-4.2,3.1c-1.6,0.8-3.5,1.6-3.7,2.6
		c-0.2,1,1.2,2.4,2.5,3.7c1.5,1.6,3,3,2.8,4.5c-0.1,1.4-1.8,2.6-3.5,3.8c-1.5,1-3.2,2.2-3.2,3.2c0,1,1.7,2.2,3.2,3.2
		c1.8,1.2,3.4,2.4,3.5,3.8c0.1,1.5-1.3,2.9-2.8,4.5c-1.3,1.3-2.7,2.7-2.5,3.7c0.2,1,2,1.8,3.7,2.6c2,0.9,3.8,1.7,4.2,3.1
		c0.4,1.4-0.7,3.1-1.9,4.9c-1,1.5-2.1,3.2-1.8,4.1c0.4,0.9,2.3,1.4,4.1,1.9c2.1,0.5,4.1,1,4.7,2.3c0.6,1.3-0.2,3.2-1,5.2
		c-0.7,1.7-1.5,3.5-1,4.4c0.5,0.8,2.6,1,4.4,1.1c2.1,0.1,4.2,0.2,5,1.4c0.9,1.2,0.4,3.1,0,5.3c-0.4,1.8-0.8,3.8-0.2,4.5
		c0.3,0.3,0.9,0.5,1.8,0.5c0.8,0,1.8-0.1,2.7-0.2c1-0.1,1.9-0.3,2.8-0.3c1.1,0,1.9,0.2,2.4,0.7c1.1,1,1,3,0.9,5.2
		c-0.1,1.8-0.1,3.9,0.6,4.5c0.7,0.5,2.6,0,4.4-0.6c1.3-0.4,2.7-0.9,3.8-0.9c0.6,0,1,0.1,1.4,0.3c1.2,0.8,1.5,2.8,1.8,4.9
		c0.3,1.8,0.6,3.8,1.5,4.3c0.8,0.4,2.6-0.5,4.2-1.4c1.5-0.8,3-1.6,4.2-1.6c0.3,0,0.6,0,0.8,0.1c1.3,0.5,2,2.4,2.7,4.5
		c0.6,1.7,1.3,3.7,2.2,3.9c0.9,0.3,2.4-1,3.9-2.2c1.7-1.4,3.3-2.7,4.7-2.4c1.4,0.3,2.4,2,3.5,3.9c0.9,1.6,1.9,3.4,2.9,3.5
		c0,0,0,0,0,0c1,0,2.3-1.5,3.4-2.8C46.5,199,47.9,197.4,49.3,197.4z"/>
</g>
<g>
	<path fill="#32BAAE" d="M-16.3,244.5c-0.2,0-0.4-0.1-0.6-0.2c-0.1,0-5.8-4.5-7.7-5.5c-2-1.1-8.9-7.6-9.7-8.3
		c-0.3-0.3-0.2-0.7,0.1-0.9c0.3-0.2,0.8-0.2,1.1,0.1c2.1,2,7.9,7.3,9.4,8.1c1.6,0.9,5.7,4,7.3,5.1c0.9-0.8,3-2.5,5.1-3.8
		c0.5-0.3,1.1-0.8,1.8-1.5c1.2-1,2.6-2.2,4.2-3.2c3-1.9,5.3-4.4,5.3-4.4c0.3-0.3,0.8-0.4,1.1-0.2c0.4,0.2,0.5,0.6,0.2,0.9
		c-0.1,0.1-2.4,2.7-5.6,4.7c-1.5,1-2.9,2.1-4.1,3.1c-0.8,0.7-1.5,1.2-2,1.6c-2.7,1.7-5.4,4.1-5.4,4.1
		C-15.8,244.4-16,244.5-16.3,244.5C-16.3,244.5-16.3,244.5-16.3,244.5z"/>
</g>
<polygon fill="#32BAAE" points="-31.4,266.6 -34.4,264.1 -31.4,261.5 -28.4,264.1 "/>
<g opacity="0.4">
	<path fill="#808284" d="M162.7,37.5c2.3,0,4.4,0.1,6.7,0.5c-1.7,6-2,12.5-1.8,17.9c-2.6,0.2-7.2,0.1-10,0
		C158,47.9,158.6,44.3,162.7,37.5z M178.5,37.5c2.3,0,4.4,0.1,6.7,0.5c-1.7,6-2,12.5-1.8,17.9c-2.6,0.2-7.2,0.1-10,0
		C173.8,47.9,174.4,44.3,178.5,37.5z"/>
</g>
<g opacity="0.4">
	<path fill="#808284" d="M164.3,88.1c-2.3,0-4.4-0.1-6.7-0.5c1.7-6,2-12.5,1.8-17.9c2.6-0.2,7.2-0.1,10,0
		C169,77.7,168.4,81.3,164.3,88.1z M180.2,88.1c-2.3,0-4.4-0.1-6.7-0.5c1.7-6,2-12.5,1.8-17.9c2.6-0.2,7.2-0.1,10,0
		C184.9,77.7,184.3,81.3,180.2,88.1z"/>
</g>
<path id="location-2-icon" fill="#FFFFFF" d="M41.6,233.2c4.6,0,8.3,3.7,8.3,8.3c0,5.3-5.5,14-8.3,18.7c-4.7-8-8.3-14.1-8.3-18.7
	C33.2,236.9,37,233.2,41.6,233.2 M41.6,229.5c-6.6,0-12,5.4-12,12s5.3,14.4,12,26c6.7-11.6,12-19.3,12-26S48.2,229.5,41.6,229.5
	L41.6,229.5z M41.6,237.2c-2.3,0-4.2,1.9-4.2,4.2s1.9,4.2,4.2,4.2c2.3,0,4.2-1.9,4.2-4.2C45.7,239.1,43.9,237.2,41.6,237.2
	L41.6,237.2z"/>
<path id="phone-2-icon" fill="#FFFFFF" d="M110.2,263.4L110.2,263.4c-1.9,0-3.8-0.9-5.7-2.6c-2.2-2-4.5-5.4-6.8-9.9
	c-3.3-6.4-4.6-11.2-3.9-14.6c0.7-3.6,3-4.5,7.9-6.8l5.7,11.2l-3.8,1.9c-0.2,0.5,0,2.3,1.3,4.8c1.3,2.6,2.7,3.8,3.2,4
	c0.2-0.1,3.8-1.9,3.8-1.9l5.8,11.2C113,262.8,112,263.4,110.2,263.4z M96.7,236.8c-0.4,1.9,0,5.6,3.6,12.8c2.2,4.2,4.3,7.3,6.2,9.1
	c1.3,1.2,2.5,1.8,3.6,1.8c0.9,0,1.6-0.4,3.5-1.3l-3.1-6c-1,0.5-1.2,0.6-1.3,0.6c-2.2,1-4.3-1.1-5.7-3.1c-1.2-1.7-2.2-3.9-2.7-5.7
	c-0.8-3.3,0.2-4.6,1.2-5.1l0,0l1.3-0.6l-3.1-6C98.2,234.3,97.1,234.8,96.7,236.8z"/>
<g>
	<path id="time-3-icon" fill="#FFFFFF" d="M173.5,229.6c-8.8,0-16,7.2-16,16s7.2,16,16,16s16-7.2,16-16S182.3,229.6,173.5,229.6z
		 M173.5,258.1c-6.9,0-12.5-5.6-12.5-12.5c0-6.9,5.6-12.5,12.5-12.5s12.5,5.6,12.5,12.5S180.4,258.1,173.5,258.1z M183.4,246.3
		c0.1,0,0.2,0.1,0.2,0.3v0c0,0.1-0.1,0.2-0.2,0.3c-2.9,0.5-9.7,1.7-10.5,1.7c-1.1,0-1.9-0.9-1.9-1.9c0-0.8,1.1-8.1,1.7-11.1
		c0-0.1,0.1-0.2,0.2-0.2l0,0c0.1,0,0.2,0.1,0.3,0.2l1.5,9.3L183.4,246.3z"/>
</g>
<g id="facebook-icon">
	<path fill="#FFFFFF" d="M267.1,267.5h-9.7v-17.8h-3.7v-8.6h3.7v-3.5c0-2.6,0.8-4.7,2.3-6c1.5-1.4,3.7-2.1,6.7-2.1h6.2v8.8h-5.1
		c-0.1,0-0.2,0-0.3,0c0,0.1,0,0.3,0,0.7v2.1h5.6l-0.8,8.6h-4.9L267.1,267.5L267.1,267.5z M260,264.9h4.5V247h5.1l0.3-3.4h-5.4v-4.7
		c0-0.9,0-3.3,2.9-3.3h2.6v-3.6h-3.6c-2.3,0-3.9,0.5-5,1.4c-1,0.9-1.4,2.2-1.4,4.1v6.1h-3.7v3.5h3.7L260,264.9L260,264.9z"/>
</g>
<path id="location-2-icon_1_" fill="#F6AF33" d="M73.6,233.2c4.6,0,8.3,3.7,8.3,8.3c0,5.3-5.5,14-8.3,18.7c-4.7-8-8.3-14.1-8.3-18.7
	C65.3,236.9,69,233.2,73.6,233.2 M73.6,229.5c-6.6,0-12,5.4-12,12s5.3,14.4,12,26c6.7-11.6,12-19.3,12-26S80.3,229.5,73.6,229.5
	L73.6,229.5z M73.6,237.2c-2.3,0-4.2,1.9-4.2,4.2s1.9,4.2,4.2,4.2s4.2-1.9,4.2-4.2C77.8,239.1,75.9,237.2,73.6,237.2L73.6,237.2z"/>
<path id="phone-2-icon_1_" fill="#F6AF33" d="M142.2,263.4L142.2,263.4c-1.9,0-3.8-0.9-5.7-2.6c-2.2-2-4.5-5.4-6.8-9.9
	c-3.3-6.4-4.6-11.2-3.9-14.6c0.7-3.6,3-4.5,7.9-6.8l5.7,11.2l-3.8,1.9c-0.2,0.5,0,2.3,1.3,4.8c1.3,2.6,2.7,3.8,3.2,4
	c0.2-0.1,3.8-1.9,3.8-1.9l5.8,11.2C145.1,262.8,144.1,263.4,142.2,263.4z M128.7,236.8c-0.4,1.9,0,5.6,3.6,12.8
	c2.2,4.2,4.3,7.3,6.2,9.1c1.3,1.2,2.5,1.8,3.6,1.8c0.9,0,1.6-0.4,3.5-1.3l-3.1-6c-1,0.5-1.2,0.6-1.3,0.6c-2.2,1-4.3-1.1-5.7-3.1
	c-1.2-1.7-2.2-3.9-2.7-5.7c-0.8-3.3,0.2-4.6,1.2-5.1l0,0l1.3-0.6l-3.1-6C130.3,234.3,129.1,234.8,128.7,236.8z"/>
<g>
	<path id="time-3-icon_1_" fill="#F6AF33" d="M205.6,229.6c-8.8,0-16,7.2-16,16s7.2,16,16,16c8.8,0,16-7.2,16-16
		S214.4,229.6,205.6,229.6z M205.6,258.1c-6.9,0-12.5-5.6-12.5-12.5c0-6.9,5.6-12.5,12.5-12.5s12.5,5.6,12.5,12.5
		S212.5,258.1,205.6,258.1z M215.4,246.3c0.1,0,0.2,0.1,0.2,0.3v0c0,0.1-0.1,0.2-0.2,0.3c-2.9,0.5-9.7,1.7-10.5,1.7
		c-1.1,0-1.9-0.9-1.9-1.9c0-0.8,1.1-8.1,1.7-11.1c0-0.1,0.1-0.2,0.2-0.2l0,0c0.1,0,0.2,0.1,0.3,0.2l1.5,9.3L215.4,246.3z"/>
</g>
<g id="facebook-icon_3_">
	<path fill="#F6AF33" d="M299.2,267.5h-9.7v-17.8h-3.7v-8.6h3.7v-3.5c0-2.6,0.8-4.7,2.3-6c1.5-1.4,3.7-2.1,6.7-2.1h6.2v8.8h-5.1
		c-0.1,0-0.2,0-0.3,0c0,0.1,0,0.3,0,0.7v2.1h5.6l-0.8,8.6h-4.9L299.2,267.5L299.2,267.5z M292.1,264.9h4.5V247h5.1l0.3-3.4h-5.4
		v-4.7c0-0.9,0-3.3,2.9-3.3h2.6v-3.6h-3.6c-2.3,0-3.9,0.5-5,1.4c-1,0.9-1.4,2.2-1.4,4.1v6.1h-3.7v3.5h3.7L292.1,264.9L292.1,264.9z"
		/>
</g>
<g id="facebook-icon_1_">
	<path d="M-146.1,323.3h-7.6v-14h-2.9v-6.8h2.9v-2.7c0-2.1,0.6-3.7,1.8-4.8c1.2-1.1,2.9-1.6,5.3-1.6h4.9v6.9h-4.1
		c-0.1,0-0.2,0-0.2,0c0,0.1,0,0.2,0,0.5v1.7h4.4l-0.6,6.8h-3.8V323.3z M-151.7,321.3h3.6v-14.1h4l0.2-2.7h-4.2v-3.7
		c0-0.7,0-2.6,2.3-2.6h2v-2.9h-2.9c-1.8,0-3.1,0.4-3.9,1.1c-0.8,0.7-1.1,1.8-1.1,3.3v4.8h-2.9v2.7h2.9V321.3z"/>
</g>
<g id="facebook-icon_2_">
	<path fill="#32BAAE" d="M-113.9,323.3h-7.6v-14h-2.9v-6.8h2.9v-2.7c0-2.1,0.6-3.7,1.8-4.8c1.2-1.1,2.9-1.6,5.3-1.6h4.9v6.9h-4.1
		c-0.1,0-0.2,0-0.2,0c0,0.1,0,0.2,0,0.5v1.7h4.4l-0.6,6.8h-3.8L-113.9,323.3L-113.9,323.3z M-119.5,321.3h3.6v-14.1h4l0.2-2.7h-4.2
		v-3.7c0-0.7,0-2.6,2.3-2.6h2v-2.9h-2.9c-1.8,0-3.1,0.4-3.9,1.1c-0.8,0.7-1.1,1.8-1.1,3.3v4.8h-2.9v2.7h2.9
		C-119.5,307.2-119.5,321.3-119.5,321.3z"/>
</g>
<path id="email-4-icon" fill="#FFFFFF" d="M-34.4,357.4v22.3h30v-22.3H-34.4z M-8,360.3l-11.5,9.5l-11.4-9.5H-8z M-7.3,376.8h-24.2
	v-13l12,10l12.1-10V376.8z"/>
<path id="email-4-icon_1_" fill="#F6AF33" d="M29.6,357.4v22.3h30v-22.3H29.6z M56,360.3l-11.5,9.5l-11.4-9.5H56z M56.6,376.8H32.5
	v-13l12,10l12.1-10C56.6,363.8,56.6,376.8,56.6,376.8z"/>
<g>
	<path d="M126,300.9H93.6v-7.4H126V300.9z M95.6,298.9H124v-3.4H95.6V298.9z"/>
</g>
<g>
	<path d="M126,310.4H93.6V303H126V310.4z M95.6,308.4H124V305H95.6V308.4z"/>
</g>
<g>
	<path d="M126,319.9H93.6v-7.4H126V319.9z M95.6,317.9H124v-3.4H95.6V317.9z"/>
</g>
</svg>
